{
  "accessors": [
    {
      "bufferView": 2,
      "componentType": 5126,
      "count": 8958,
      "max": [
        3.5560030937194824,
        1.4899849891662598,
        1.5446619987487793
      ],
      "min": [
        -1.1620110273361206,
        -1.4820369482040405,
        -0.050652001053094864
      ],
      "type": "VEC3"
    },
    {
      "bufferView": 2,
      "byteOffset": 107496,
      "componentType": 5126,
      "count": 8958,
      "max": [
        1.0,
        1.0,
        1.0
      ],
      "min": [
        -1.0,
        -1.0,
        -1.0
      ],
      "type": "VEC3"
    },
    {
      "bufferView": 3,
      "componentType": 5126,
      "count": 8958,
      "max": [
        0.9999910593032837,
        1.0,
        0.9999760985374451,
        1.0
      ],
      "min": [
        -0.999968409538269,
        -1.0,
        -0.999859094619751,
        -1.0
      ],
      "type": "VEC4"
    },
    {
      "bufferView": 1,
      "componentType": 5126,
      "count": 8958,
      "max": [
        1.0,
        0.8443830013275146
      ],
      "min": [
        0.0,
        3.999999989900971e-06
      ],
      "type": "VEC2"
    },
    {
      "bufferView": 0,
      "componentType": 5125,
      "count": 36366,
      "type": "SCALAR"
    },
    {
      "bufferView": 2,
      "byteOffset": 214992,
      "componentType": 5126,
      "count": 7910,
      "max": [
        3.356431007385254,
        1.256011962890625,
        1.6166189908981323
      ],
      "min": [
        -1.2313859462738037,
        -1.3101439476013184,
        -0.009965999983251095
      ],
      "type": "VEC3"
    },
    {
      "bufferView": 2,
      "byteOffset": 309912,
      "componentType": 5126,
      "count": 7910,
      "max": [
        1.0,
        1.0,
        1.0
      ],
      "min": [
        -1.0,
        -1.0,
        -1.0
      ],
      "type": "VEC3"
    },
    {
      "bufferView": 3,
      "byteOffset": 143328,
      "componentType": 5126,
      "count": 7910,
      "max": [
        0.9999971389770508,
        1.0,
        0.9999896287918091,
        1.0
      ],
      "min": [
        -0.9999998211860657,
        -1.0,
        -0.9999896287918091,
        -1.0
      ],
      "type": "VEC4"
    },
    {
      "bufferView": 1,
      "byteOffset": 71664,
      "componentType": 5126,
      "count": 7910,
      "max": [
        0.9999539852142334,
        0.9656839966773987
      ],
      "min": [
        0.0,
        0.0
      ],
      "type": "VEC2"
    },
    {
      "bufferView": 0,
      "byteOffset": 145464,
      "componentType": 5125,
      "count": 34122,
      "type": "SCALAR"
    }
  ],
  "asset": {
    "extras": {
      "author": "manuelpintor_ (https://sketchfab.com/manuelpintorcalero)",
      "license": "CC-BY-4.0 (http://creativecommons.org/licenses/by/4.0/)",
      "source": "https://sketchfab.com/3d-models/old-wooden-cart-b57a201a3f264cdbb1162125d6f0486f",
      "title": "Old Wooden Cart"
    },
    "generator": "Sketchfab-15.30.0",
    "version": "2.0"
  },
  "bufferViews": [
    {
      "buffer": 0,
      "byteLength": 281952,
      "name": "floatBufferViews",
      "target": 34963
    },
    {
      "buffer": 0,
      "byteLength": 134944,
      "byteOffset": 281952,
      "byteStride": 8,
      "name": "floatBufferViews",
      "target": 34962
    },
    {
      "buffer": 0,
      "byteLength": 404832,
      "byteOffset": 416896,
      "byteStride": 12,
      "name": "floatBufferViews",
      "target": 34962
    },
    {
      "buffer": 0,
      "byteLength": 269888,
      "byteOffset": 821728,
      "byteStride": 16,
      "name": "floatBufferViews",
      "target": 34962
    }
  ],
  "buffers": [
    {
      "byteLength": 1091616,
      "uri": "scene.bin"
    }
  ],
  "images": [
    {
      "uri": "textures/initialShadingGroup_baseColor.png"
    },
    {
      "uri": "textures/initialShadingGroup_metallicRoughness.png"
    },
    {
      "uri": "textures/initialShadingGroup_normal.png"
    }
  ],
  "materials": [
    {
      "doubleSided": true,
      "name": "initialShadingGroup",
      "normalTexture": {
        "index": 2
      },
      "occlusionTexture": {
        "index": 1
      },
      "pbrMetallicRoughness": {
        "baseColorTexture": {
          "index": 0
        },
        "metallicRoughnessTexture": {
          "index": 1
        }
      }
    }
  ],
  "meshes": [
    {
      "name": "Object_0",
      "primitives": [
        {
          "attributes": {
            "NORMAL": 1,
            "POSITION": 0,
            "TANGENT": 2,
            "TEXCOORD_0": 3
          },
          "indices": 4,
          "material": 0,
          "mode": 4
        }
      ]
    },
    {
      "name": "Object_1",
      "primitives": [
        {
          "attributes": {
            "NORMAL": 6,
            "POSITION": 5,
            "TANGENT": 7,
            "TEXCOORD_0": 8
          },
          "indices": 9,
          "material": 0,
          "mode": 4
        }
      ]
    }
  ],
  "nodes": [
    {
      "children": [
        1
      ],
      "matrix": [
        1.0,
        0.0,
        0.0,
        0.0,
        0.0,
        2.220446049250313e-16,
        -1.0,
        0.0,
        0.0,
        1.0,
        2.220446049250313e-16,
        0.0,
        0.0,
        0.0,
        0.0,
        1.0
      ],
      "name": "Sketchfab_model"
    },
    {
      "children": [
        2,
        3
      ],
      "name": "lp6.obj.cleaner.materialmerger.gles"
    },
    {
      "mesh": 0,
      "name": "Object_2"
    },
    {
      "mesh": 1,
      "name": "Object_3"
    }
  ],
  "samplers": [
    {
      "magFilter": 9729,
      "minFilter": 9987,
      "wrapS": 10497,
      "wrapT": 10497
    }
  ],
  "scene": 0,
  "scenes": [
    {
      "name": "Sketchfab_Scene",
      "nodes": [
        0
      ]
    }
  ],
  "textures": [
    {
      "sampler": 0,
      "source": 0
    },
    {
      "sampler": 0,
      "source": 1
    },
    {
      "sampler": 0,
      "source": 2
    }
  ]
}
