{
  "accessors": [
    {
      "bufferView": 2,
      "componentType": 5126,
      "count": 30002,
      "max": [
        0.653727114200592,
        0.4533761441707611,
        0.5462992787361145
      ],
      "min": [
        -0.6558780074119568,
        -0.4531746208667755,
        -0.547284722328186
      ],
      "type": "VEC3"
    },
    {
      "bufferView": 2,
      "byteOffset": 360024,
      "componentType": 5126,
      "count": 30002,
      "max": [
        0.9999999403953552,
        0.9999988079071045,
        1.0
      ],
      "min": [
        -0.9999999403953552,
        -0.999999463558197,
        -1.0
      ],
      "type": "VEC3"
    },
    {
      "bufferView": 3,
      "componentType": 5126,
      "count": 30002,
      "max": [
        0.9999998807907104,
        1.0,
        1.0,
        -1.0
      ],
      "min": [
        -0.9999996423721313,
        -1.0,
        -1.0,
        -1.0
      ],
      "type": "VEC4"
    },
    {
      "bufferView": 1,
      "componentType": 5126,
      "count": 30002,
      "max": [
        0.9983053803443909,
        0.998221218585968
      ],
      "min": [
        0.0017173290252685547,
        0.038498520851135254
      ],
      "type": "VEC2"
    },
    {
      "bufferView": 1,
      "byteOffset": 240016,
      "componentType": 5126,
      "count": 30002,
      "max": [
        0.9983053803443909,
        0.998221218585968
      ],
      "min": [
        0.0017173290252685547,
        0.038498520851135254
      ],
      "type": "VEC2"
    },
    {
      "bufferView": 1,
      "byteOffset": 480032,
      "componentType": 5126,
      "count": 30002,
      "max": [
        0.9983053803443909,
        0.998221218585968
      ],
      "min": [
        0.0017173290252685547,
        0.038498520851135254
      ],
      "type": "VEC2"
    },
    {
      "bufferView": 1,
      "byteOffset": 720048,
      "componentType": 5126,
      "count": 30002,
      "max": [
        0.9983053803443909,
        0.998221218585968
      ],
      "min": [
        0.0017173290252685547,
        0.038498520851135254
      ],
      "type": "VEC2"
    },
    {
      "bufferView": 1,
      "byteOffset": 960064,
      "componentType": 5126,
      "count": 30002,
      "max": [
        0.9983053803443909,
        0.998221218585968
      ],
      "min": [
        0.0017173290252685547,
        0.038498520851135254
      ],
      "type": "VEC2"
    },
    {
      "bufferView": 1,
      "byteOffset": 1200080,
      "componentType": 5126,
      "count": 30002,
      "max": [
        0.9983053803443909,
        0.998221218585968
      ],
      "min": [
        0.0017173290252685547,
        0.038498520851135254
      ],
      "type": "VEC2"
    },
    {
      "bufferView": 1,
      "byteOffset": 1440096,
      "componentType": 5126,
      "count": 30002,
      "max": [
        0.9983053803443909,
        0.998221218585968
      ],
      "min": [
        0.0017173290252685547,
        0.038498520851135254
      ],
      "type": "VEC2"
    },
    {
      "bufferView": 1,
      "byteOffset": 1680112,
      "componentType": 5126,
      "count": 30002,
      "max": [
        0.9983053803443909,
        0.998221218585968
      ],
      "min": [
        0.0017173290252685547,
        0.038498520851135254
      ],
      "type": "VEC2"
    },
    {
      "bufferView": 1,
      "byteOffset": 1920128,
      "componentType": 5126,
      "count": 30002,
      "max": [
        0.9983053803443909,
        0.998221218585968
      ],
      "min": [
        0.0017173290252685547,
        0.038498520851135254
      ],
      "type": "VEC2"
    },
    {
      "bufferView": 1,
      "byteOffset": 2160144,
      "componentType": 5126,
      "count": 30002,
      "max": [
        0.9983053803443909,
        0.998221218585968
      ],
      "min": [
        0.0017173290252685547,
        0.038498520851135254
      ],
      "type": "VEC2"
    },
    {
      "bufferView": 0,
      "componentType": 5125,
      "count": 149994,
      "type": "SCALAR"
    }
  ],
  "asset": {
    "extras": {
      "author": "vicente betoret ferrero (https://sketchfab.com/deathcow)",
      "license": "CC-BY-4.0 (http://creativecommons.org/licenses/by/4.0/)",
      "source": "https://sketchfab.com/3d-models/new-halloween-tombstone-29c3c03370824700a338c9ae586ef7dd",
      "title": "new halloween tombstone"
    },
    "generator": "Sketchfab-15.99.0",
    "version": "2.0"
  },
  "bufferViews": [
    {
      "buffer": 0,
      "byteLength": 599976,
      "name": "floatBufferViews",
      "target": 34963
    },
    {
      "buffer": 0,
      "byteLength": 2400160,
      "byteOffset": 599976,
      "byteStride": 8,
      "name": "floatBufferViews",
      "target": 34962
    },
    {
      "buffer": 0,
      "byteLength": 720048,
      "byteOffset": 3000136,
      "byteStride": 12,
      "name": "floatBufferViews",
      "target": 34962
    },
    {
      "buffer": 0,
      "byteLength": 480032,
      "byteOffset": 3720184,
      "byteStride": 16,
      "name": "floatBufferViews",
      "target": 34962
    }
  ],
  "buffers": [
    {
      "byteLength": 4200216,
      "uri": "scene.bin"
    }
  ],
  "extensionsUsed": [
    "KHR_materials_emissive_strength"
  ],
  "images": [
    {
      "uri": "textures/default.004_baseColor.png"
    },
    {
      "uri": "textures/default.004_metallicRoughness.png"
    },
    {
      "uri": "textures/default.004_emissive.png"
    },
    {
      "uri": "textures/default.004_normal.png"
    }
  ],
  "materials": [
    {
      "doubleSided": true,
      "emissiveFactor": [
        1.0,
        1.0,
        1.0
      ],
      "emissiveTexture": {
        "index": 2
      },
      "extensions": {
        "KHR_materials_emissive_strength": {
          "emissiveStrength": 10.0
        }
      },
      "name": "default.004",
      "normalTexture": {
        "index": 3
      },
      "occlusionTexture": {
        "index": 1
      },
      "pbrMetallicRoughness": {
        "baseColorTexture": {
          "index": 0
        },
        "metallicRoughnessTexture": {
          "index": 1
        }
      }
    }
  ],
  "meshes": [
    {
      "name": "model_default.004_0",
      "primitives": [
        {
          "attributes": {
            "NORMAL": 1,
            "POSITION": 0,
            "TANGENT": 2,
            "TEXCOORD_0": 3,
            "TEXCOORD_1": 4,
            "TEXCOORD_2": 5,
            "TEXCOORD_3": 6,
            "TEXCOORD_4": 7,
            "TEXCOORD_5": 8,
            "TEXCOORD_6": 9,
            "TEXCOORD_7": 10,
            "TEXCOORD_8": 11,
            "TEXCOORD_9": 12
          },
          "indices": 13,
          "material": 0,
          "mode": 4
        }
      ]
    }
  ],
  "nodes": [
    {
      "children": [
        1
      ],
      "matrix": [
        1.0,
        0.0,
        0.0,
        0.0,
        0.0,
        2.220446049250313e-16,
        -1.0,
        0.0,
        0.0,
        1.0,
        2.220446049250313e-16,
        0.0,
        0.0,
        0.0,
        0.0,
        1.0
      ],
      "name": "Sketchfab_model"
    },
    {
      "children": [
        2
      ],
      "matrix": [
        1.0,
        0.0,
        0.0,
        0.0,
        0.0,
        0.0,
        1.0,
        0.0,
        0.0,
        -1.0,
        0.0,
        0.0,
        0.0,
        0.0,
        0.0,
        1.0
      ],
      "name": "tombstone.fbx"
    },
    {
      "children": [
        3
      ],
      "name": "RootNode"
    },
    {
      "children": [
        4
      ],
      "matrix": [
        1.0,
        0.0,
        0.0,
        0.0,
        0.0,
        2.220446049250313e-16,
        -1.0,
        0.0,
        0.0,
        1.0,
        2.220446049250313e-16,
        0.0,
        0.0,
        0.0,
        0.0,
        1.0
      ],
      "name": "Scene"
    },
    {
      "children": [
        5
      ],
      "name": "model"
    },
    {
      "mesh": 0,
      "name": "model_default.004_0"
    }
  ],
  "samplers": [
    {
      "magFilter": 9729,
      "minFilter": 9987,
      "wrapS": 10497,
      "wrapT": 10497
    }
  ],
  "scene": 0,
  "scenes": [
    {
      "name": "Sketchfab_Scene",
      "nodes": [
        0
      ]
    }
  ],
  "textures": [
    {
      "sampler": 0,
      "source": 0
    },
    {
      "sampler": 0,
      "source": 1
    },
    {
      "sampler": 0,
      "source": 2
    },
    {
      "sampler": 0,
      "source": 3
    }
  ]
}
